<svg width="106" height="37" viewBox="0 0 106 37" fill="none" xmlns="http://www.w3.org/2000/svg">
<path d="M43.1846 29.664L37.5298 9.72795L41.3916 9.71625L45.0076 24.3681L45.1915 24.3676L48.9606 9.69333L52.4741 9.68269L56.3417 24.3436L56.5159 24.3431L60.0429 9.65977L63.9049 9.64808L58.3709 29.618L54.8284 29.6287L50.8176 15.6405L50.6628 15.641L46.7271 29.6533L43.1846 29.664ZM69.5051 20.8158L69.5316 29.5842L66.0278 29.5948L65.9674 9.64183L69.3937 9.63145L69.4165 17.1626L69.5908 17.162C69.9366 16.3166 70.4734 15.6492 71.2011 15.1599C71.9352 14.664 72.8701 14.4143 74.0057 14.4109C75.0382 14.4078 75.939 14.6227 76.7081 15.0556C77.4773 15.4884 78.0729 16.1231 78.4949 16.9597C78.9233 17.7962 79.1393 18.8186 79.143 20.0267L79.1718 29.555L75.668 29.5656L75.6408 20.5829C75.6378 19.5762 75.3773 18.7943 74.8594 18.2372C74.348 17.6737 73.6308 17.3934 72.7081 17.3962C72.0886 17.3981 71.5342 17.5361 71.0446 17.8104C70.5615 18.0782 70.1819 18.4657 69.9059 18.9732C69.6365 19.4807 69.5029 20.0949 69.5051 20.8158ZM82.4708 29.545L82.4255 14.5803L85.9292 14.5697L85.9745 29.5344L82.4708 29.545ZM84.1806 12.4511C83.6257 12.4528 83.1477 12.269 82.7465 11.9001C82.3453 11.5246 82.1439 11.0738 82.1423 10.5476C82.1407 10.0151 82.3393 9.56308 82.7383 9.19161C83.1372 8.81369 83.6141 8.62389 84.169 8.62221C84.7304 8.62051 85.2085 8.80742 85.6034 9.18293C86.0046 9.55198 86.206 10.0028 86.2076 10.5353C86.2092 11.0615 86.0106 11.5135 85.6116 11.8914C85.2189 12.2628 84.742 12.4494 84.1806 12.4511ZM89.305 29.5243L89.2596 14.5596L92.6567 14.5493L92.6643 17.0434L92.819 17.043C93.0882 16.1783 93.5504 15.5111 94.2072 15.0415C94.87 14.5653 95.6275 14.326 96.4798 14.3234C96.673 14.3228 96.8893 14.3319 97.1278 14.3507C97.3732 14.3629 97.5767 14.385 97.7384 14.417L97.7482 17.6614C97.5993 17.6098 97.3641 17.565 97.0409 17.527C96.7244 17.4826 96.4183 17.4608 96.1208 17.4617C95.4823 17.4636 94.9083 17.605 94.3996 17.8858C93.897 18.1601 93.5015 18.5413 93.2123 19.0293C92.924 19.5173 92.7803 20.0796 92.7823 20.7161L92.8089 29.5137L89.305 29.5243ZM103.283 9.52882L103.343 29.4818L99.8391 29.4924L99.7787 9.53944L103.283 9.52882Z" fill="#2D2D2D"/>
<path fill-rule="evenodd" clip-rule="evenodd" d="M18.5308 5.61652C16.6637 4.83807 14.6437 4.50238 12.6272 4.63543C10.6106 4.76846 8.65148 5.36668 6.90132 6.38377L5.13549 7.40999L3.09649 3.85509L4.86231 2.82887C7.15418 1.49696 9.71969 0.71359 12.3605 0.539368C15.0012 0.365145 17.6464 0.804739 20.0914 1.82414C22.5363 2.84354 24.7155 4.41543 26.4604 6.41821C28.2053 8.42098 29.4691 10.801 30.1541 13.374C30.839 15.9471 30.9267 18.6443 30.4105 21.2569C29.8941 23.8696 28.7877 26.3277 27.1767 28.441C25.5657 30.5543 23.4932 32.2663 21.1197 33.4445C18.7462 34.6227 15.6848 35.2355 13.4888 35.2355C11.2929 35.2355 10.0108 34.904 8.32685 34.2019C6.69032 33.5196 5.20333 32.5195 3.95077 31.2587C2.69822 29.9979 1.70465 28.5011 1.02677 26.8538C0.348897 25.2066 0 23.441 0 21.6579C0 19.8748 0.348898 18.1093 1.02677 16.462C1.70465 14.8147 2.69822 13.3179 3.95077 12.0571C5.20333 10.7963 6.69032 9.79622 8.32686 9.11387C9.9634 8.43155 11.7174 8.08036 13.4888 8.08036C15.2602 8.08036 17.0142 8.43155 18.6507 9.11387C20.2873 9.79622 21.7743 10.7963 23.0268 12.0571C24.2794 13.3179 25.273 14.8147 25.9508 16.462C26.2424 17.1706 26.4731 17.901 26.6414 18.6453C26.7237 17.2324 26.581 15.8112 26.215 14.4365C25.692 12.4716 24.7269 10.6541 23.3945 9.12471C22.0619 7.59532 20.3978 6.39498 18.5308 5.61652ZM5.34449 26.4041C5.57579 21.9912 9.20388 18.4846 13.6456 18.4846C17.9157 18.4846 21.4338 21.7254 21.9049 25.8966C22.0047 25.6957 22.0976 25.4911 22.1832 25.283C22.6561 24.1337 22.8996 22.9019 22.8996 21.6579C22.8996 20.4139 22.6561 19.1822 22.1832 18.0329C21.7103 16.8836 21.0171 15.8394 20.1432 14.9597C19.2693 14.08 18.2319 13.3823 17.0901 12.9063C15.9484 12.4302 14.7246 12.1852 13.4888 12.1852C12.2529 12.1852 11.0292 12.4302 9.88741 12.9063C8.74568 13.3823 7.70823 14.08 6.83436 14.9597C5.96049 15.8394 5.26729 16.8836 4.79435 18.0329C4.32142 19.1822 4.07801 20.4139 4.07801 21.6579C4.07801 22.9019 4.32142 24.1337 4.79435 25.283C4.95335 25.6693 5.13722 26.0438 5.34449 26.4041ZM17.8805 26.8522C17.8805 29.2064 15.9845 31.1149 13.6456 31.1149C11.3068 31.1149 9.41075 29.2064 9.41075 26.8522C9.41075 24.498 11.3068 22.5894 13.6456 22.5894C15.9845 22.5894 17.8805 24.498 17.8805 26.8522Z" fill="#006B99"/>
</svg>
